<svg xmlns="http://www.w3.org/2000/svg" viewBox="0 0 64 64">
  <defs>
    <linearGradient id="ozadje" x1="0" y1="0" x2="0" y2="1">
      <stop offset="0%" stop-color="#ffd56f" />
      <stop offset="45%" stop-color="#ff9d73" />
      <stop offset="46%" stop-color="#29b8c6" />
      <stop offset="100%" stop-color="#147fa5" />
    </linearGradient>
    <radialGradient id="sonce" cx="50%" cy="50%" r="55%">
      <stop offset="0%" stop-color="#fff8d3" />
      <stop offset="100%" stop-color="#ffc75b" />
    </radialGradient>
    <linearGradient id="ploscek" x1="0" y1="0" x2="0" y2="1">
      <stop offset="0%" stop-color="#76e5d8" />
      <stop offset="100%" stop-color="#1492b0" />
    </linearGradient>
    <linearGradient id="zoga" x1="0" y1="0" x2="1" y2="1">
      <stop offset="0%" stop-color="#fff6cf" />
      <stop offset="100%" stop-color="#ff9950" />
    </linearGradient>
  </defs>

  <rect width="64" height="64" rx="16" fill="url(#ozadje)" />
  <circle cx="47" cy="15" r="9" fill="url(#sonce)" />
  <circle cx="14" cy="13" r="1.1" fill="#fff9e8" opacity="0.75" />
  <circle cx="20" cy="19" r="0.9" fill="#fff9e8" opacity="0.55" />

  <rect x="10" y="21" width="13" height="8" rx="3" fill="#ff7161" />
  <rect x="26" y="21" width="13" height="8" rx="3" fill="#ffb547" />
  <rect x="42" y="21" width="13" height="8" rx="3" fill="#2dc4c8" />

  <path d="M0 37c7-3 14-3 21 0s14 3 21 0 14-3 22 0v27H0Z" fill="#1c94b6" opacity="0.88" />
  <path d="M0 40c8-3 15-3 22 0s14 3 21 0 14-3 21 0" fill="none" stroke="#f6ffff" stroke-opacity="0.55" stroke-width="2.5" />
  <rect x="17" y="50" width="30" height="6" rx="3" fill="url(#ploscek)" />
  <circle cx="30" cy="44" r="5" fill="url(#zoga)" />
</svg>
